<?xml version="1.0" encoding="utf-8"?>
<svg width="30.979492px" height="23.00003px" viewBox="0 0 30.979492 23.00003" version="1.1" xmlns:xlink="http://www.w3.org/1999/xlink" xmlns="http://www.w3.org/2000/svg">
  <g id="comment" transform="translate(1 1)">
    <path d="M27.5681 2.93521C22.2384 2.9479 9.78086 2.93946 5.7632 2.93628C5.7632 2.93628 4.53274 2.92447 4.4912 4.27547C4.51133 8.0288 4.48992 15.8552 4.48992 15.8552C4.48992 15.8552 4.48931 17.1069 5.76316 17.1134C8.82175 17.0944 14.9135 17.1053 17.3805 17.1108C17.3805 17.1108 18.5661 17.1537 19.9602 18.0021C21.8999 19.1479 25.0378 21 25.0378 21L25.038 17.1134L27.6615 17.1134C27.6615 17.1134 28.9885 17.1239 28.9794 15.7623C28.9713 12.6144 28.9794 4.27545 28.9794 4.27545C28.9794 4.27545 28.9876 2.93293 27.5681 2.93521Z" id="Rectangle-Copy" fill="none" fill-rule="evenodd" stroke="#808080" stroke-width="2" />
    <path d="M1.41137 3.02062e-06C6.74107 0.0126897 19.1986 0.00424631 23.2163 0.00106749C23.2163 0.00106749 24.4468 -0.0107384 24.4883 1.34026C24.4682 5.09359 24.4896 12.92 24.4896 12.92C24.4896 12.92 24.4902 14.1717 23.2163 14.1782C20.1577 14.1592 14.066 14.1701 11.599 14.1756C11.599 14.1756 10.4133 14.2185 9.01929 15.0668C7.07964 16.2127 3.94172 18.0648 3.94172 18.0648L3.94152 14.1782L1.31798 14.1782C1.31798 14.1782 -0.00899155 14.1887 4.58715e-05 12.8271C0.00822646 9.6792 4.58715e-05 1.34024 4.58715e-05 1.34024C4.58715e-05 1.34024 -0.00813577 -0.00228102 1.41137 3.02062e-06Z" id="Rectangle" fill="#FFFFFF" fill-rule="evenodd" stroke="#808080" stroke-width="2" />
  </g>
</svg>